<?xml version="1.0" encoding="utf-8"?>
<svg xmlns="http://www.w3.org/2000/svg" viewBox="0 0 245 48" xmlns:bx="https://boxy-svg.com">
  <defs>
    <filter id="filter0_d_3903_56743" x="12.0615" y="9.60596" width="7.05273" height="29.7896" filterUnits="userSpaceOnUse" color-interpolation-filters="sRGB">
      <feFlood flood-opacity="0" result="BackgroundImageFix"/>
      <feColorMatrix in="SourceAlpha" type="matrix" values="0 0 0 0 0 0 0 0 0 0 0 0 0 0 0 0 0 0 127 0" result="hardAlpha"/>
      <feOffset dy="0.5"/>
      <feGaussianBlur stdDeviation="0.5"/>
      <feComposite in2="hardAlpha" operator="out"/>
      <feColorMatrix type="matrix" values="0 0 0 0 0 0 0 0 0 0 0 0 0 0 0 0 0 0 0.12 0"/>
      <feBlend mode="normal" in2="BackgroundImageFix" result="effect1_dropShadow_3903_56743"/>
      <feBlend mode="normal" in="SourceGraphic" in2="effect1_dropShadow_3903_56743" result="shape"/>
    </filter>
    <filter id="filter1_d_3903_56743" x="21.5391" y="19.709" width="7.05273" height="19.6843" filterUnits="userSpaceOnUse" color-interpolation-filters="sRGB">
      <feFlood flood-opacity="0" result="BackgroundImageFix"/>
      <feColorMatrix in="SourceAlpha" type="matrix" values="0 0 0 0 0 0 0 0 0 0 0 0 0 0 0 0 0 0 127 0" result="hardAlpha"/>
      <feOffset dy="0.5"/>
      <feGaussianBlur stdDeviation="0.5"/>
      <feComposite in2="hardAlpha" operator="out"/>
      <feColorMatrix type="matrix" values="0 0 0 0 0 0 0 0 0 0 0 0 0 0 0 0 0 0 0.12 0"/>
      <feBlend mode="normal" in2="BackgroundImageFix" result="effect1_dropShadow_3903_56743"/>
      <feBlend mode="normal" in="SourceGraphic" in2="effect1_dropShadow_3903_56743" result="shape"/>
    </filter>
    <filter id="filter2_d_3903_56743" x="31.0078" y="13.3926" width="7.05273" height="26" filterUnits="userSpaceOnUse" color-interpolation-filters="sRGB">
      <feFlood flood-opacity="0" result="BackgroundImageFix"/>
      <feColorMatrix in="SourceAlpha" type="matrix" values="0 0 0 0 0 0 0 0 0 0 0 0 0 0 0 0 0 0 127 0" result="hardAlpha"/>
      <feOffset dy="0.5"/>
      <feGaussianBlur stdDeviation="0.5"/>
      <feComposite in2="hardAlpha" operator="out"/>
      <feColorMatrix type="matrix" values="0 0 0 0 0 0 0 0 0 0 0 0 0 0 0 0 0 0 0.12 0"/>
      <feBlend mode="normal" in2="BackgroundImageFix" result="effect1_dropShadow_3903_56743"/>
      <feBlend mode="normal" in="SourceGraphic" in2="effect1_dropShadow_3903_56743" result="shape"/>
    </filter>
    <bx:guide x="81.538" y="38.186" angle="90"/>
    <bx:guide x="47.869" y="-31.284" angle="0"/>
    <bx:guide x="65.564" y="34.437" angle="0"/>
    <bx:export>
      <bx:file format="svg" path="Untitled 2.svg"/>
    </bx:export>
  </defs>
  <g transform="matrix(1, 0, 0, 1, 0, 0.326582)">
    <g transform="matrix(1, 0, 0, 1, -62.060001, -95.341003)">
      <path d="M 62.06 107.972 C 62.06 100.996 67.715 95.341 74.691 95.341 L 97.428 95.341 C 104.404 95.341 110.06 100.996 110.06 107.972 L 110.06 130.709 C 110.06 137.685 104.404 143.341 97.428 143.341 L 74.691 143.341 C 67.715 143.341 62.06 137.685 62.06 130.709 L 62.06 107.972 Z" fill="#465FFF" style="stroke-width: 1;"/>
    </g>
    <g filter="url(#filter0_d_3903_56743)" transform="matrix(1, 0, 0, 1, -0.426545, 0.000581)">
      <path d="M13.0615 12.6323C13.0615 11.237 14.1926 10.106 15.5878 10.106C16.9831 10.106 18.1142 11.237 18.1142 12.6323V35.3691C18.1142 36.7644 16.9831 37.8954 15.5878 37.8954C14.1926 37.8954 13.0615 36.7644 13.0615 35.3691V12.6323Z" fill="white"/>
    </g>
    <g filter="url(#filter1_d_3903_56743)" transform="matrix(1, 0, 0, 1, -0.426545, 0.000581)">
      <path d="M22.5391 22.7353C22.5391 21.3401 23.6701 20.209 25.0654 20.209C26.4606 20.209 27.5917 21.3401 27.5917 22.7353V35.3669C27.5917 36.7621 26.4606 37.8932 25.0654 37.8932C23.6701 37.8932 22.5391 36.7621 22.5391 35.3669V22.7353Z" fill="white" fill-opacity="0.9" shape-rendering="crispEdges"/>
    </g>
    <g filter="url(#filter2_d_3903_56743)" transform="matrix(1, 0, 0, 1, -0.426545, 0.000581)">
      <path d="M32.0078 16.4189C32.0078 15.0236 33.1389 13.8926 34.5341 13.8926C35.9294 13.8926 37.0604 15.0236 37.0604 16.4189V35.3663C37.0604 36.7615 35.9294 37.8926 34.5341 37.8926C33.1389 37.8926 32.0078 36.7615 32.0078 35.3663V16.4189Z" fill="white" fill-opacity="0.7" shape-rendering="crispEdges"/>
    </g>
  </g>
  <path d="M 65.582 38.186 L 65.582 15.69 L 68.654 15.69 L 77.774 30.282 L 76.014 30.282 L 85.102 15.69 L 88.174 15.69 L 88.174 38.186 L 83.822 38.186 L 83.822 23.178 L 84.686 23.402 L 78.382 33.578 L 75.374 33.578 L 69.102 23.402 L 69.934 23.178 L 69.934 38.186 Z M 103.241 38.538 Q 100.745 38.538 98.633 37.642 Q 96.521 36.746 94.937 35.162 Q 93.353 33.578 92.489 31.466 Q 91.625 29.354 91.625 26.922 Q 91.625 24.49 92.489 22.378 Q 93.353 20.266 94.921 18.698 Q 96.489 17.13 98.601 16.234 Q 100.713 15.338 103.177 15.338 Q 105.929 15.338 107.961 16.218 Q 109.993 17.098 111.561 18.602 L 108.585 21.578 Q 107.657 20.554 106.313 19.978 Q 104.969 19.402 103.177 19.402 Q 101.641 19.402 100.345 19.93 Q 99.049 20.458 98.089 21.466 Q 97.129 22.474 96.617 23.866 Q 96.105 25.258 96.105 26.922 Q 96.105 28.618 96.617 30.01 Q 97.129 31.402 98.089 32.394 Q 99.049 33.386 100.345 33.93 Q 101.641 34.474 103.209 34.474 Q 105.097 34.474 106.441 33.882 Q 107.785 33.29 108.745 32.266 L 111.721 35.242 Q 110.121 36.778 108.025 37.658 Q 105.929 38.538 103.241 38.538 Z M 114.725 38.186 L 114.725 15.69 L 117.797 15.69 L 126.917 30.282 L 125.157 30.282 L 134.245 15.69 L 137.317 15.69 L 137.317 38.186 L 132.965 38.186 L 132.965 23.178 L 133.829 23.402 L 127.525 33.578 L 124.517 33.578 L 118.245 23.402 L 119.077 23.178 L 119.077 38.186 Z M 147.908 38.506 Q 145.796 38.506 144.116 37.45 Q 142.436 36.394 141.476 34.57 Q 140.516 32.746 140.516 30.474 Q 140.516 28.17 141.476 26.346 Q 142.436 24.522 144.116 23.466 Q 145.796 22.41 147.94 22.41 Q 149.572 22.41 150.884 23.082 Q 152.196 23.754 152.996 24.938 Q 153.796 26.122 153.86 27.658 L 153.86 33.258 Q 153.796 34.762 153.012 35.962 Q 152.228 37.162 150.9 37.834 Q 149.572 38.506 147.908 38.506 Z M 148.708 34.634 Q 150.468 34.634 151.556 33.45 Q 152.644 32.266 152.644 30.474 Q 152.644 29.258 152.132 28.298 Q 151.62 27.338 150.756 26.81 Q 149.892 26.282 148.708 26.282 Q 147.556 26.282 146.676 26.826 Q 145.796 27.37 145.3 28.298 Q 144.804 29.226 144.804 30.442 Q 144.804 31.69 145.3 32.618 Q 145.796 33.546 146.692 34.09 Q 147.588 34.634 148.708 34.634 Z M 152.388 38.186 L 152.388 34.026 L 153.092 30.25 L 152.388 26.506 L 152.388 22.73 L 156.612 22.73 L 156.612 38.186 Z M 170.69 38.186 L 170.69 29.322 Q 170.69 27.946 169.81 27.082 Q 168.93 26.218 167.586 26.218 Q 166.69 26.218 165.986 26.602 Q 165.282 26.986 164.882 27.706 Q 164.482 28.426 164.482 29.322 L 162.85 28.458 Q 162.85 26.666 163.634 25.306 Q 164.418 23.946 165.81 23.178 Q 167.202 22.41 168.962 22.41 Q 170.69 22.41 172.018 23.258 Q 173.346 24.106 174.114 25.466 Q 174.882 26.826 174.882 28.362 L 174.882 38.186 Z M 160.29 38.186 L 160.29 22.73 L 164.482 22.73 L 164.482 38.186 Z M 184.702 38.506 Q 182.59 38.506 180.91 37.45 Q 179.23 36.394 178.27 34.57 Q 177.31 32.746 177.31 30.474 Q 177.31 28.17 178.27 26.346 Q 179.23 24.522 180.91 23.466 Q 182.59 22.41 184.734 22.41 Q 186.366 22.41 187.678 23.082 Q 188.99 23.754 189.79 24.938 Q 190.59 26.122 190.654 27.658 L 190.654 33.258 Q 190.59 34.762 189.806 35.962 Q 189.022 37.162 187.694 37.834 Q 186.366 38.506 184.702 38.506 Z M 185.502 34.634 Q 187.262 34.634 188.35 33.45 Q 189.438 32.266 189.438 30.474 Q 189.438 29.258 188.926 28.298 Q 188.414 27.338 187.55 26.81 Q 186.686 26.282 185.502 26.282 Q 184.35 26.282 183.47 26.826 Q 182.59 27.37 182.094 28.298 Q 181.598 29.226 181.598 30.442 Q 181.598 31.69 182.094 32.618 Q 182.59 33.546 183.486 34.09 Q 184.382 34.634 185.502 34.634 Z M 189.182 38.186 L 189.182 34.026 L 189.886 30.25 L 189.182 26.506 L 189.182 22.73 L 193.406 22.73 L 193.406 38.186 Z M 203.548 45.034 Q 201.052 45.034 199.18 44.154 Q 197.308 43.274 196.156 41.674 L 198.844 39.018 Q 199.74 40.074 200.844 40.634 Q 201.948 41.194 203.516 41.194 Q 205.436 41.194 206.588 40.186 Q 207.74 39.178 207.74 37.482 L 207.74 33.578 L 208.412 30.186 L 207.772 26.794 L 207.772 22.73 L 211.932 22.73 L 211.932 37.418 Q 211.932 39.69 210.86 41.418 Q 209.788 43.146 207.9 44.09 Q 206.012 45.034 203.548 45.034 Z M 203.356 37.77 Q 201.276 37.77 199.612 36.762 Q 197.948 35.754 197.004 33.994 Q 196.06 32.234 196.06 30.058 Q 196.06 27.882 197.004 26.154 Q 197.948 24.426 199.612 23.418 Q 201.276 22.41 203.356 22.41 Q 205.052 22.41 206.396 23.066 Q 207.74 23.722 208.492 24.906 Q 209.244 26.09 209.308 27.658 L 209.308 32.522 Q 209.244 34.09 208.476 35.258 Q 207.708 36.426 206.38 37.098 Q 205.052 37.77 203.356 37.77 Z M 204.156 33.93 Q 205.34 33.93 206.188 33.45 Q 207.036 32.97 207.5 32.09 Q 207.964 31.21 207.964 30.09 Q 207.964 28.97 207.5 28.09 Q 207.036 27.21 206.172 26.714 Q 205.308 26.218 204.188 26.218 Q 203.036 26.218 202.188 26.714 Q 201.34 27.21 200.844 28.09 Q 200.348 28.97 200.348 30.058 Q 200.348 31.178 200.828 32.058 Q 201.308 32.938 202.188 33.434 Q 203.068 33.93 204.156 33.93 Z M 223.006 38.538 Q 220.574 38.538 218.67 37.482 Q 216.766 36.426 215.678 34.602 Q 214.59 32.778 214.59 30.442 Q 214.59 28.138 215.662 26.314 Q 216.734 24.49 218.59 23.434 Q 220.446 22.378 222.75 22.378 Q 224.926 22.378 226.654 23.37 Q 228.382 24.362 229.342 26.122 Q 230.302 27.882 230.302 30.122 Q 230.302 30.538 230.27 30.97 Q 230.238 31.402 230.11 31.914 L 217.086 31.946 L 217.086 28.81 L 228.158 28.778 L 226.43 30.09 Q 226.398 28.714 225.95 27.786 Q 225.502 26.858 224.702 26.378 Q 223.902 25.898 222.718 25.898 Q 221.47 25.898 220.542 26.442 Q 219.614 26.986 219.118 27.994 Q 218.622 29.002 218.622 30.378 Q 218.622 31.786 219.15 32.826 Q 219.678 33.866 220.67 34.41 Q 221.662 34.954 222.974 34.954 Q 224.158 34.954 225.118 34.57 Q 226.078 34.186 226.782 33.354 L 229.278 35.85 Q 228.094 37.194 226.494 37.866 Q 224.894 38.538 223.006 38.538 Z M 232.922 38.186 L 232.922 22.73 L 237.114 22.73 L 237.114 38.186 Z M 237.114 29.674 L 235.482 28.554 Q 235.77 25.706 237.146 24.058 Q 238.522 22.41 241.114 22.41 Q 242.266 22.41 243.146 22.778 Q 244.026 23.146 244.762 23.978 L 242.138 26.986 Q 241.786 26.602 241.29 26.426 Q 240.794 26.25 240.154 26.25 Q 238.81 26.25 237.962 27.082 Q 237.114 27.914 237.114 29.674 Z" style="fill: rgb(255, 255, 255); text-wrap-mode: nowrap;"/>
</svg>