<?xml version="1.0" encoding="utf-8"?>
<svg xmlns="http://www.w3.org/2000/svg" viewBox="0 0 245 48" xmlns:bx="https://boxy-svg.com">
  <defs>
    <filter id="filter0_d_3903_56743" x="12.0615" y="9.60596" width="7.05273" height="29.7896" filterUnits="userSpaceOnUse" color-interpolation-filters="sRGB">
      <feFlood flood-opacity="0" result="BackgroundImageFix"/>
      <feColorMatrix in="SourceAlpha" type="matrix" values="0 0 0 0 0 0 0 0 0 0 0 0 0 0 0 0 0 0 127 0" result="hardAlpha"/>
      <feOffset dy="0.5"/>
      <feGaussianBlur stdDeviation="0.5"/>
      <feComposite in2="hardAlpha" operator="out"/>
      <feColorMatrix type="matrix" values="0 0 0 0 0 0 0 0 0 0 0 0 0 0 0 0 0 0 0.12 0"/>
      <feBlend mode="normal" in2="BackgroundImageFix" result="effect1_dropShadow_3903_56743"/>
      <feBlend mode="normal" in="SourceGraphic" in2="effect1_dropShadow_3903_56743" result="shape"/>
    </filter>
    <filter id="filter1_d_3903_56743" x="21.5391" y="19.709" width="7.05273" height="19.6843" filterUnits="userSpaceOnUse" color-interpolation-filters="sRGB">
      <feFlood flood-opacity="0" result="BackgroundImageFix"/>
      <feColorMatrix in="SourceAlpha" type="matrix" values="0 0 0 0 0 0 0 0 0 0 0 0 0 0 0 0 0 0 127 0" result="hardAlpha"/>
      <feOffset dy="0.5"/>
      <feGaussianBlur stdDeviation="0.5"/>
      <feComposite in2="hardAlpha" operator="out"/>
      <feColorMatrix type="matrix" values="0 0 0 0 0 0 0 0 0 0 0 0 0 0 0 0 0 0 0.12 0"/>
      <feBlend mode="normal" in2="BackgroundImageFix" result="effect1_dropShadow_3903_56743"/>
      <feBlend mode="normal" in="SourceGraphic" in2="effect1_dropShadow_3903_56743" result="shape"/>
    </filter>
    <filter id="filter2_d_3903_56743" x="31.0078" y="13.3926" width="7.05273" height="26" filterUnits="userSpaceOnUse" color-interpolation-filters="sRGB">
      <feFlood flood-opacity="0" result="BackgroundImageFix"/>
      <feColorMatrix in="SourceAlpha" type="matrix" values="0 0 0 0 0 0 0 0 0 0 0 0 0 0 0 0 0 0 127 0" result="hardAlpha"/>
      <feOffset dy="0.5"/>
      <feGaussianBlur stdDeviation="0.5"/>
      <feComposite in2="hardAlpha" operator="out"/>
      <feColorMatrix type="matrix" values="0 0 0 0 0 0 0 0 0 0 0 0 0 0 0 0 0 0 0.12 0"/>
      <feBlend mode="normal" in2="BackgroundImageFix" result="effect1_dropShadow_3903_56743"/>
      <feBlend mode="normal" in="SourceGraphic" in2="effect1_dropShadow_3903_56743" result="shape"/>
    </filter>
    <bx:guide x="81.538" y="38.186" angle="90"/>
    <bx:guide x="47.869" y="-31.284" angle="0"/>
    <bx:guide x="65.564" y="34.437" angle="0"/>
    <bx:export>
      <bx:file format="svg" path="Untitled 2.svg"/>
    </bx:export>
  </defs>
  <g transform="matrix(1, 0, 0, 1, 0, 0.326582)">
    <g transform="matrix(1, 0, 0, 1, -62.060001, -95.341003)">
      <path d="M 62.06 107.972 C 62.06 100.996 67.715 95.341 74.691 95.341 L 97.428 95.341 C 104.404 95.341 110.06 100.996 110.06 107.972 L 110.06 130.709 C 110.06 137.685 104.404 143.341 97.428 143.341 L 74.691 143.341 C 67.715 143.341 62.06 137.685 62.06 130.709 L 62.06 107.972 Z" fill="#465FFF" style="stroke-width: 1;"/>
    </g>
    <g filter="url(#filter0_d_3903_56743)" transform="matrix(1, 0, 0, 1, -0.426545, 0.000581)">
      <path d="M13.0615 12.6323C13.0615 11.237 14.1926 10.106 15.5878 10.106C16.9831 10.106 18.1142 11.237 18.1142 12.6323V35.3691C18.1142 36.7644 16.9831 37.8954 15.5878 37.8954C14.1926 37.8954 13.0615 36.7644 13.0615 35.3691V12.6323Z" fill="white"/>
    </g>
    <g filter="url(#filter1_d_3903_56743)" transform="matrix(1, 0, 0, 1, -0.426545, 0.000581)">
      <path d="M22.5391 22.7353C22.5391 21.3401 23.6701 20.209 25.0654 20.209C26.4606 20.209 27.5917 21.3401 27.5917 22.7353V35.3669C27.5917 36.7621 26.4606 37.8932 25.0654 37.8932C23.6701 37.8932 22.5391 36.7621 22.5391 35.3669V22.7353Z" fill="white" fill-opacity="0.9" shape-rendering="crispEdges"/>
    </g>
    <g filter="url(#filter2_d_3903_56743)" transform="matrix(1, 0, 0, 1, -0.426545, 0.000581)">
      <path d="M32.0078 16.4189C32.0078 15.0236 33.1389 13.8926 34.5341 13.8926C35.9294 13.8926 37.0604 15.0236 37.0604 16.4189V35.3663C37.0604 36.7615 35.9294 37.8926 34.5341 37.8926C33.1389 37.8926 32.0078 36.7615 32.0078 35.3663V16.4189Z" fill="white" fill-opacity="0.7" shape-rendering="crispEdges"/>
    </g>
  </g>
  <path d="M 65.564 38.162 L 65.564 15.666 L 68.636 15.666 L 77.756 30.258 L 75.996 30.258 L 85.084 15.666 L 88.156 15.666 L 88.156 38.162 L 83.804 38.162 L 83.804 23.154 L 84.668 23.378 L 78.364 33.554 L 75.356 33.554 L 69.084 23.378 L 69.916 23.154 L 69.916 38.162 L 65.564 38.162 Z M 103.225 38.514 C 101.561 38.514 100.025 38.215 98.617 37.618 C 97.209 37.021 95.977 36.194 94.921 35.138 C 93.865 34.082 93.049 32.85 92.473 31.442 C 91.897 30.034 91.609 28.519 91.609 26.898 C 91.609 25.277 91.897 23.762 92.473 22.354 C 93.049 20.946 93.86 19.719 94.905 18.674 C 95.95 17.629 97.177 16.807 98.585 16.21 C 99.993 15.613 101.518 15.314 103.161 15.314 C 104.996 15.314 106.59 15.607 107.945 16.194 C 109.3 16.781 110.5 17.575 111.545 18.578 L 108.569 21.554 C 107.95 20.871 107.193 20.338 106.297 19.954 C 105.401 19.57 104.356 19.378 103.161 19.378 C 102.137 19.378 101.193 19.554 100.329 19.906 C 99.465 20.258 98.713 20.77 98.073 21.442 C 97.433 22.114 96.942 22.914 96.601 23.842 C 96.26 24.77 96.089 25.789 96.089 26.898 C 96.089 28.029 96.26 29.058 96.601 29.986 C 96.942 30.914 97.433 31.709 98.073 32.37 C 98.713 33.031 99.465 33.543 100.329 33.906 C 101.193 34.269 102.148 34.45 103.193 34.45 C 104.452 34.45 105.529 34.253 106.425 33.858 C 107.321 33.463 108.089 32.925 108.729 32.242 L 111.705 35.218 C 110.638 36.242 109.406 37.047 108.009 37.634 C 106.612 38.221 105.017 38.514 103.225 38.514 Z M 114.71 38.162 L 114.71 15.666 L 117.782 15.666 L 126.902 30.258 L 125.142 30.258 L 134.23 15.666 L 137.302 15.666 L 137.302 38.162 L 132.95 38.162 L 132.95 23.154 L 133.814 23.378 L 127.51 33.554 L 124.502 33.554 L 118.23 23.378 L 119.062 23.154 L 119.062 38.162 L 114.71 38.162 Z M 147.891 38.482 C 146.483 38.482 145.219 38.13 144.099 37.426 C 142.979 36.722 142.099 35.762 141.459 34.546 C 140.819 33.33 140.499 31.965 140.499 30.45 C 140.499 28.914 140.819 27.538 141.459 26.322 C 142.099 25.106 142.979 24.146 144.099 23.442 C 145.219 22.738 146.494 22.386 147.923 22.386 C 149.011 22.386 149.992 22.61 150.867 23.058 C 151.742 23.506 152.446 24.125 152.979 24.914 C 153.512 25.703 153.8 26.61 153.843 27.634 L 153.843 33.234 C 153.8 34.237 153.518 35.138 152.995 35.938 C 152.472 36.738 151.768 37.362 150.883 37.81 C 149.998 38.258 149 38.482 147.891 38.482 Z M 148.691 34.61 C 149.864 34.61 150.814 34.215 151.539 33.426 C 152.264 32.637 152.627 31.645 152.627 30.45 C 152.627 29.639 152.456 28.914 152.115 28.274 C 151.774 27.634 151.315 27.138 150.739 26.786 C 150.163 26.434 149.48 26.258 148.691 26.258 C 147.923 26.258 147.246 26.439 146.659 26.802 C 146.072 27.165 145.614 27.655 145.283 28.274 C 144.952 28.893 144.787 29.607 144.787 30.418 C 144.787 31.25 144.952 31.975 145.283 32.594 C 145.614 33.213 146.078 33.703 146.675 34.066 C 147.272 34.429 147.944 34.61 148.691 34.61 Z M 152.371 38.162 L 152.371 34.002 L 153.075 30.226 L 152.371 26.482 L 152.371 22.706 L 156.595 22.706 L 156.595 38.162 L 152.371 38.162 Z M 170.672 38.162 L 170.672 29.298 C 170.672 28.381 170.379 27.634 169.792 27.058 C 169.205 26.482 168.464 26.194 167.568 26.194 C 166.971 26.194 166.437 26.322 165.968 26.578 C 165.499 26.834 165.131 27.202 164.864 27.682 C 164.597 28.162 164.464 28.701 164.464 29.298 L 162.832 28.434 C 162.832 27.239 163.093 26.189 163.616 25.282 C 164.139 24.375 164.864 23.666 165.792 23.154 C 166.72 22.642 167.771 22.386 168.944 22.386 C 170.096 22.386 171.115 22.669 172 23.234 C 172.885 23.799 173.584 24.535 174.096 25.442 C 174.608 26.349 174.864 27.314 174.864 28.338 L 174.864 38.162 L 170.672 38.162 Z M 160.272 38.162 L 160.272 22.706 L 164.464 22.706 L 164.464 38.162 L 160.272 38.162 Z M 184.689 38.482 C 183.281 38.482 182.017 38.13 180.897 37.426 C 179.777 36.722 178.897 35.762 178.257 34.546 C 177.617 33.33 177.297 31.965 177.297 30.45 C 177.297 28.914 177.617 27.538 178.257 26.322 C 178.897 25.106 179.777 24.146 180.897 23.442 C 182.017 22.738 183.292 22.386 184.721 22.386 C 185.809 22.386 186.79 22.61 187.665 23.058 C 188.54 23.506 189.244 24.125 189.777 24.914 C 190.31 25.703 190.598 26.61 190.641 27.634 L 190.641 33.234 C 190.598 34.237 190.316 35.138 189.793 35.938 C 189.27 36.738 188.566 37.362 187.681 37.81 C 186.796 38.258 185.798 38.482 184.689 38.482 Z M 185.489 34.61 C 186.662 34.61 187.612 34.215 188.337 33.426 C 189.062 32.637 189.425 31.645 189.425 30.45 C 189.425 29.639 189.254 28.914 188.913 28.274 C 188.572 27.634 188.113 27.138 187.537 26.786 C 186.961 26.434 186.278 26.258 185.489 26.258 C 184.721 26.258 184.044 26.439 183.457 26.802 C 182.87 27.165 182.412 27.655 182.081 28.274 C 181.75 28.893 181.585 29.607 181.585 30.418 C 181.585 31.25 181.75 31.975 182.081 32.594 C 182.412 33.213 182.876 33.703 183.473 34.066 C 184.07 34.429 184.742 34.61 185.489 34.61 Z M 189.169 38.162 L 189.169 34.002 L 189.873 30.226 L 189.169 26.482 L 189.169 22.706 L 193.393 22.706 L 193.393 38.162 L 189.169 38.162 Z M 203.534 45.01 C 201.87 45.01 200.414 44.717 199.166 44.13 C 197.918 43.543 196.91 42.717 196.142 41.65 L 198.83 38.994 C 199.427 39.698 200.094 40.237 200.83 40.61 C 201.566 40.983 202.457 41.17 203.502 41.17 C 204.782 41.17 205.806 40.834 206.574 40.162 C 207.342 39.49 207.726 38.589 207.726 37.458 L 207.726 33.554 L 208.398 30.162 L 207.758 26.77 L 207.758 22.706 L 211.918 22.706 L 211.918 37.394 C 211.918 38.909 211.561 40.242 210.846 41.394 C 210.131 42.546 209.145 43.437 207.886 44.066 C 206.627 44.695 205.177 45.01 203.534 45.01 Z M 203.342 37.746 C 201.955 37.746 200.707 37.41 199.598 36.738 C 198.489 36.066 197.619 35.143 196.99 33.97 C 196.361 32.797 196.046 31.485 196.046 30.034 C 196.046 28.583 196.361 27.282 196.99 26.13 C 197.619 24.978 198.489 24.066 199.598 23.394 C 200.707 22.722 201.955 22.386 203.342 22.386 C 204.473 22.386 205.486 22.605 206.382 23.042 C 207.278 23.479 207.977 24.093 208.478 24.882 C 208.979 25.671 209.251 26.589 209.294 27.634 L 209.294 32.498 C 209.251 33.543 208.974 34.455 208.462 35.234 C 207.95 36.013 207.251 36.626 206.366 37.074 C 205.481 37.522 204.473 37.746 203.342 37.746 Z M 204.142 33.906 C 204.931 33.906 205.609 33.746 206.174 33.426 C 206.739 33.106 207.177 32.653 207.486 32.066 C 207.795 31.479 207.95 30.813 207.95 30.066 C 207.95 29.319 207.795 28.653 207.486 28.066 C 207.177 27.479 206.734 27.021 206.158 26.69 C 205.582 26.359 204.921 26.194 204.174 26.194 C 203.406 26.194 202.739 26.359 202.174 26.69 C 201.609 27.021 201.161 27.479 200.83 28.066 C 200.499 28.653 200.334 29.309 200.334 30.034 C 200.334 30.781 200.494 31.447 200.814 32.034 C 201.134 32.621 201.587 33.079 202.174 33.41 C 202.761 33.741 203.417 33.906 204.142 33.906 Z M 222.988 38.514 C 221.367 38.514 219.921 38.162 218.652 37.458 C 217.383 36.754 216.385 35.794 215.66 34.578 C 214.935 33.362 214.572 31.975 214.572 30.418 C 214.572 28.882 214.929 27.506 215.644 26.29 C 216.359 25.074 217.335 24.114 218.572 23.41 C 219.809 22.706 221.196 22.354 222.732 22.354 C 224.183 22.354 225.484 22.685 226.636 23.346 C 227.788 24.007 228.684 24.925 229.324 26.098 C 229.964 27.271 230.284 28.605 230.284 30.098 C 230.284 30.375 230.273 30.658 230.252 30.946 C 230.231 31.234 230.177 31.549 230.092 31.89 L 217.068 31.922 L 217.068 28.786 L 228.14 28.754 L 226.412 30.066 C 226.391 29.149 226.231 28.381 225.932 27.762 C 225.633 27.143 225.217 26.674 224.684 26.354 C 224.151 26.034 223.489 25.874 222.7 25.874 C 221.868 25.874 221.143 26.055 220.524 26.418 C 219.905 26.781 219.431 27.298 219.1 27.97 C 218.769 28.642 218.604 29.437 218.604 30.354 C 218.604 31.293 218.78 32.109 219.132 32.802 C 219.484 33.495 219.991 34.023 220.652 34.386 C 221.313 34.749 222.081 34.93 222.956 34.93 C 223.745 34.93 224.46 34.802 225.1 34.546 C 225.74 34.29 226.295 33.885 226.764 33.33 L 229.26 35.826 C 228.471 36.722 227.543 37.394 226.476 37.842 C 225.409 38.29 224.247 38.514 222.988 38.514 Z M 232.908 38.162 L 232.908 22.706 L 237.1 22.706 L 237.1 38.162 L 232.908 38.162 Z M 237.1 29.65 L 235.468 28.53 C 235.66 26.631 236.215 25.133 237.132 24.034 C 238.049 22.935 239.372 22.386 241.1 22.386 C 241.868 22.386 242.545 22.509 243.132 22.754 C 243.719 22.999 244.257 23.399 244.748 23.954 L 242.124 26.962 C 241.889 26.706 241.607 26.519 241.276 26.402 C 240.945 26.285 240.567 26.226 240.14 26.226 C 239.244 26.226 238.513 26.503 237.948 27.058 C 237.383 27.613 237.1 28.477 237.1 29.65 Z" style="text-wrap-mode: nowrap;"/>
</svg>